<?xml version="1.0" encoding="utf-8"?>
<!-- Generator: Adobe Illustrator 16.0.0, SVG Export Plug-In . SVG Version: 6.00 Build 0)  -->
<!DOCTYPE svg PUBLIC "-//W3C//DTD SVG 1.1//EN" "http://www.w3.org/Graphics/SVG/1.1/DTD/svg11.dtd">
<svg version="1.1" id="Calque_1" xmlns="http://www.w3.org/2000/svg" xmlns:xlink="http://www.w3.org/1999/xlink" x="0px" y="0px"
	 width="550px" height="150px" viewBox="327.5 499.5 550 150" enable-background="new 327.5 499.5 550 150" xml:space="preserve">
<g>
	<rect x="403.897" y="550.988" fill="#0382D4" width="9.779" height="12.332"/>
	<rect x="440.654" y="546.38" fill="#0382D4" width="6.406" height="8.081"/>
	<rect x="415.347" y="577.546" fill="#0382D4" width="7.153" height="9.017"/>
	<rect x="444.738" y="603.531" fill="#0382D4" width="5.349" height="6.748"/>
	<rect x="440.379" y="537.706" fill="#0382D4" width="3.786" height="4.779"/>
	<rect x="421.085" y="556.156" fill="#0382D4" width="6.315" height="7.966"/>
	<rect x="434.106" y="590.743" fill="#0382D4" width="8.245" height="10.408"/>
	<rect x="405.177" y="588.985" fill="#0382D4" width="3.79" height="4.777"/>
	<rect x="423.545" y="592.202" fill="#0382D4" width="5.52" height="6.966"/>
	<rect x="448.69" y="589.903" fill="#0382D4" width="3.355" height="4.23"/>
	<rect x="426.063" y="570.785" fill="#0382D4" width="3.792" height="4.772"/>
	<rect x="457.701" y="562.667" fill="#0382D4" width="3.792" height="4.784"/>
	<rect x="413.254" y="599.022" fill="#0382D4" width="5.502" height="6.953"/>
	<rect x="410.785" y="540.693" fill="#0382D4" width="3.792" height="4.782"/>
	<rect x="455.409" y="596.259" fill="#0382D4" width="5.703" height="7.195"/>
	<polygon fill="#0382D4" points="434.053,533.149 424.129,533.149 424.129,548.109 435.996,548.109 435.996,534.893 	"/>
	<polyline fill="#FFFFFF" points="426.292,536.98 434.049,536.98 434.049,536.098 426.292,536.098 	"/>
	<polyline fill="#FFFFFF" points="426.292,539.838 434.049,539.838 434.049,538.955 426.292,538.955 	"/>
	<polyline fill="#FFFFFF" points="426.292,542.689 434.049,542.689 434.049,541.807 426.292,541.807 	"/>
	<polyline fill="#FFFFFF" points="426.292,545.541 432.516,545.541 432.516,544.662 426.292,544.662 	"/>
	<polyline fill="#FFFFFF" points="435.569,534.893 434.053,534.893 434.053,533.529 	"/>
	<polygon fill="#0382D4" points="407.85,568.123 397.931,568.123 397.931,583.1 409.795,583.091 409.799,569.872 	"/>
	<polyline fill="#FFFFFF" points="400.093,571.958 407.85,571.953 407.85,571.077 400.093,571.081 	"/>
	<polyline fill="#FFFFFF" points="400.093,574.812 407.85,574.812 407.85,573.929 400.093,573.933 	"/>
	<polyline fill="#FFFFFF" points="400.093,577.665 407.85,577.665 407.85,576.786 400.093,576.786 	"/>
	<polyline fill="#FFFFFF" points="400.093,580.515 406.316,580.515 406.316,579.636 400.093,579.636 	"/>
	<polyline fill="#FFFFFF" points="409.375,569.872 407.85,569.872 407.854,568.509 	"/>
	<polygon fill="#0382D4" points="449.844,558.498 431.481,558.498 431.481,586.204 453.447,586.204 453.442,561.725 	"/>
	<polyline fill="#FFFFFF" points="435.478,565.214 449.84,565.214 449.84,564.337 435.478,564.337 	"/>
	<polyline fill="#FFFFFF" points="435.478,569.177 449.84,569.177 449.84,568.298 435.478,568.298 	"/>
	<polyline fill="#FFFFFF" points="435.478,573.144 449.84,573.144 449.84,572.261 435.478,572.261 	"/>
	<polyline fill="#FFFFFF" points="435.482,577.102 449.84,577.102 449.84,576.226 435.482,576.226 	"/>
	<polyline fill="#FFFFFF" points="435.478,581.078 446.999,581.078 446.999,580.19 435.478,580.19 	"/>
	<polyline fill="#FFFFFF" points="452.662,561.725 449.849,561.725 449.849,559.208 	"/>
	<polygon fill="#0382D4" points="468.009,572.731 458.085,572.731 458.085,587.689 469.954,587.689 469.954,574.475 	"/>
	<polyline fill="#FFFFFF" points="460.248,576.566 468.005,576.566 468.005,575.684 460.248,575.684 	"/>
	<polyline fill="#FFFFFF" points="460.248,579.418 468.005,579.418 468.005,578.535 460.248,578.535 	"/>
	<polyline fill="#FFFFFF" points="460.248,582.271 468.005,582.271 468.005,581.393 460.248,581.393 	"/>
	<polyline fill="#FFFFFF" points="460.248,585.121 466.471,585.13 466.471,584.251 460.248,584.242 	"/>
	<polyline fill="#FFFFFF" points="469.525,574.475 468.009,574.475 468.009,573.116 	"/>
	<polygon fill="#0382D4" points="457.893,548.733 452,548.733 452,557.531 459.597,557.531 459.597,550.263 	"/>
	<polyline fill="#FFFFFF" points="453.38,551.905 458.347,551.905 458.347,551.022 453.38,551.022 	"/>
	<polyline fill="#FFFFFF" points="453.38,553.859 458.347,553.859 458.347,552.984 453.38,552.984 	"/>
	<polyline fill="#FFFFFF" points="453.38,555.814 456.488,555.814 456.488,554.932 453.38,554.932 	"/>
	<polyline fill="#FFFFFF" points="459.348,550.455 457.768,550.455 457.768,549.03 	"/>
	<polygon fill="#0382D4" points="434.783,607.063 428.89,607.063 428.886,615.851 436.487,615.851 436.487,608.591 	"/>
	<polyline fill="#FFFFFF" points="430.272,610.229 435.237,610.229 435.237,609.342 430.272,609.342 	"/>
	<polyline fill="#FFFFFF" points="430.272,612.19 435.237,612.19 435.237,611.304 430.272,611.304 	"/>
	<polyline fill="#FFFFFF" points="430.272,614.14 433.377,614.14 433.377,613.257 430.272,613.257 	"/>
	<polyline fill="#FFFFFF" points="436.237,608.77 434.657,608.77 434.657,607.354 	"/>
	<path fill="#0382D4" d="M336.233,539.632h19.564c4.739,0,9.239,0.532,13.5,1.591c4.264,1.056,7.985,2.772,11.165,5.14
		c3.176,2.367,5.697,5.451,7.561,9.243c1.866,3.79,2.804,8.387,2.804,13.793c0,4.797-0.908,9.009-2.721,12.673
		c-1.813,3.647-4.25,6.701-7.312,9.192c-3.066,2.479-6.604,4.359-10.619,5.639c-4.01,1.28-8.22,1.924-12.624,1.924h-21.315v-59.194
		H336.233z M349.275,586.785h6.771c3.01,0,5.814-0.312,8.403-0.922c2.596-0.614,4.835-1.621,6.731-3.046
		c1.896-1.425,3.384-3.288,4.472-5.604c1.087-2.314,1.633-5.145,1.633-8.486c0-2.9-0.546-5.421-1.633-7.569
		c-1.088-2.141-2.551-3.913-4.39-5.309c-1.834-1.393-3.997-2.439-6.473-3.135c-2.48-0.695-5.089-1.043-7.819-1.043h-7.697V586.785z"
		/>
	<path fill="#0382D4" d="M507.862,571.315c-0.617-0.893-1.476-1.631-2.589-2.218c-1.12-0.58-2.312-0.879-3.596-0.879
		c-3.176,0-5.644,0.949-7.398,2.846c-1.751,1.896-2.634,4.376-2.634,7.437c0,3.062,0.878,5.545,2.634,7.439
		c1.76,1.894,4.227,2.841,7.398,2.841c1.389,0,2.592-0.295,3.596-0.913c1-0.618,1.864-1.339,2.589-2.176l8.277,8.693
		c-1.951,2.005-4.25,3.413-6.901,4.223c-2.643,0.807-5.17,1.203-7.565,1.203c-3.118,0-6.057-0.495-8.819-1.497
		c-2.76-1.003-5.152-2.444-7.19-4.304c-2.034-1.873-3.638-4.112-4.809-6.723c-1.169-2.636-1.755-5.554-1.755-8.791
		c0-3.227,0.586-6.153,1.755-8.774c1.171-2.621,2.771-4.862,4.809-6.735c2.042-1.855,4.435-3.289,7.194-4.289
		c2.762-1.004,5.701-1.508,8.819-1.508c2.395,0,4.918,0.403,7.565,1.212c2.647,0.806,4.946,2.213,6.902,4.218L507.862,571.315z"/>
	<path fill="#0382D4" d="M557.692,598.822h-12.04v-5.52h-0.168c-0.446,0.78-1.02,1.553-1.713,2.346
		c-0.699,0.768-1.546,1.477-2.55,2.086c-1,0.614-2.146,1.109-3.43,1.506c-1.28,0.393-2.677,0.58-4.185,0.58
		c-3.176,0-5.752-0.486-7.735-1.459c-1.975-0.973-3.511-2.32-4.594-4.057c-1.088-1.719-1.809-3.758-2.176-6.096
		c-0.363-2.337-0.546-4.888-0.546-7.605v-22.408h12.541v19.896c0,1.169,0.043,2.385,0.125,3.643c0.088,1.25,0.337,2.41,0.751,3.464
		c0.42,1.062,1.058,1.919,1.926,2.594c0.862,0.669,2.101,1.002,3.717,1.002c1.617,0,2.927-0.294,3.927-0.875
		c1.004-0.588,1.771-1.373,2.303-2.341c0.527-0.986,0.876-2.086,1.043-3.302c0.17-1.225,0.253-2.513,0.253-3.853V558.19h12.541
		v40.632H557.692z"/>
	<polygon fill="#0382D4" points="560.193,539.632 575.081,539.632 589.709,578.42 589.874,578.42 604.756,539.632 618.713,539.632 
		594.303,598.822 583.854,598.822 	"/>
	<rect x="622.231" y="558.19" fill="#0382D4" width="12.536" height="40.632"/>
	<path fill="#0382D4" d="M680.171,591.793c-2.014,2.576-4.557,4.551-7.61,5.941c-3.062,1.395-6.249,2.086-9.538,2.086
		c-3.118,0-6.061-0.495-8.82-1.497c-2.756-1.003-5.153-2.444-7.188-4.305c-2.03-1.872-3.639-4.111-4.803-6.722
		c-1.173-2.636-1.763-5.554-1.763-8.791c0-3.228,0.598-6.153,1.763-8.774c1.164-2.622,2.772-4.86,4.803-6.735
		c2.034-1.864,4.44-3.298,7.188-4.298c2.76-1.004,5.702-1.508,8.82-1.508c2.905,0,5.537,0.504,7.909,1.508
		c2.362,1,4.376,2.438,6.015,4.298c1.646,1.875,2.917,4.113,3.805,6.735c0.887,2.621,1.344,5.547,1.344,8.774v3.924h-29.096
		c0.504,2.401,1.591,4.312,3.263,5.729c1.668,1.42,3.732,2.137,6.182,2.137c2.063,0,3.804-0.465,5.229-1.386
		c1.426-0.921,2.654-2.095,3.716-3.549L680.171,591.793z M669.545,573.911c0.064-2.117-0.635-3.931-2.095-5.438
		c-1.441-1.501-3.318-2.259-5.592-2.259c-1.395,0-2.623,0.225-3.681,0.67c-1.059,0.446-1.972,1.014-2.722,1.713
		c-0.751,0.697-1.34,1.506-1.754,2.427c-0.422,0.917-0.651,1.884-0.707,2.888H669.545z"/>
	<polygon fill="#0382D4" points="682.756,558.19 696.132,558.19 704.399,583.688 704.569,583.688 711.514,558.19 725.223,558.19 
		732.747,583.688 732.918,583.688 740.52,558.19 753.234,558.19 738.77,598.822 726.399,598.822 717.95,571.823 717.783,571.823 
		710.259,598.822 697.634,598.822 	"/>
	<path fill="#0382D4" d="M780.658,593.721h-0.171c-1.391,2.175-3.246,3.736-5.554,4.684c-2.312,0.947-4.756,1.416-7.319,1.416
		c-1.895,0-3.72-0.269-5.473-0.794c-1.763-0.528-3.307-1.322-4.637-2.376c-1.344-1.062-2.406-2.376-3.183-3.937
		c-0.785-1.553-1.177-3.365-1.177-5.426c0-2.347,0.439-4.325,1.296-5.946c0.866-1.608,2.04-2.951,3.52-4.005
		c1.476-1.062,3.161-1.879,5.055-2.47c1.895-0.585,3.86-1.014,5.896-1.293c2.034-0.279,4.068-0.445,6.099-0.501
		c2.039-0.058,3.917-0.088,5.648-0.088c0-2.229-0.803-3.997-2.381-5.309c-1.595-1.309-3.48-1.964-5.656-1.964
		c-2.06,0-3.933,0.433-5.639,1.293c-1.698,0.865-3.216,2.054-4.556,3.555l-6.688-6.856c2.338-2.176,5.076-3.806,8.199-4.893
		c3.117-1.088,6.355-1.63,9.691-1.63c3.681,0,6.704,0.459,9.08,1.376c2.36,0.917,4.267,2.271,5.683,4.055
		c1.42,1.784,2.41,3.969,2.964,6.56c0.555,2.59,0.84,5.591,0.84,8.988v20.653h-11.537V593.721L780.658,593.721z M777.561,581.014
		c-0.946,0-2.128,0.042-3.553,0.124c-1.425,0.085-2.794,0.323-4.099,0.708c-1.311,0.393-2.428,0.98-3.345,1.757
		s-1.374,1.868-1.374,3.264c0,1.505,0.64,2.623,1.92,3.34c1.28,0.725,2.619,1.092,4.014,1.092c1.229,0,2.419-0.171,3.545-0.504
		c1.144-0.332,2.159-0.811,3.055-1.42c0.895-0.61,1.6-1.386,2.128-2.342c0.529-0.951,0.798-2.056,0.798-3.345v-2.674H777.561z"/>
	<path fill="#0382D4" d="M797.959,558.19h12.532v6.519h0.171c1.33-2.509,2.926-4.39,4.769-5.644
		c1.834-1.254,4.154-1.879,6.936-1.879c0.726,0,1.45,0.025,2.176,0.083c0.725,0.058,1.391,0.166,2.005,0.337v11.453
		c-0.888-0.275-1.767-0.491-2.637-0.63c-0.861-0.141-1.766-0.211-2.717-0.211c-2.397,0-4.287,0.338-5.686,1.005
		c-1.391,0.669-2.466,1.604-3.217,2.8s-1.245,2.635-1.468,4.307c-0.217,1.668-0.332,3.51-0.332,5.516v16.977h-12.532V558.19
		L797.959,558.19z"/>
	<rect x="623.35" y="539.378" fill="#0382D4" width="9.653" height="9.648"/>
	<path fill="#0382D4" d="M850.792,590.172c-0.533,0.076-1.088,0.128-1.672,0.128c-2.453,0-4.513-0.717-6.186-2.133
		c-1.673-1.425-2.756-3.336-3.254-5.733h29.086v-3.924c0-3.228-0.452-6.153-1.331-8.774c-0.896-2.621-2.166-4.86-3.813-6.73
		c-1.646-1.868-3.65-3.302-6.014-4.302c-2.371-1.005-5.004-1.508-7.908-1.508c-3.118,0-6.057,0.503-8.821,1.508
		c-2.756,1-5.157,2.438-7.191,4.302c-2.039,1.866-3.635,4.109-4.804,6.73c-1.177,2.621-1.753,5.547-1.753,8.774
		c0,3.233,0.58,6.163,1.753,8.787c1.169,2.623,2.765,4.854,4.804,6.722c2.034,1.869,4.436,3.311,7.191,4.309
		c2.765,0.998,5.703,1.501,8.821,1.501c0.371,0,0.729-0.008,1.088-0.024v-9.632H850.792z M840.384,571.023
		c0.418-0.917,1.003-1.729,1.758-2.427c0.751-0.695,1.655-1.267,2.713-1.713c1.062-0.445,2.282-0.67,3.677-0.67
		c2.286,0,4.154,0.753,5.604,2.259c1.45,1.508,2.146,3.316,2.095,5.438h-16.55C839.728,572.907,839.966,571.945,840.384,571.023z"/>
	<rect x="859.118" y="590.172" fill="#0382D4" width="9.648" height="9.648"/>
</g>
</svg>
